<?xml version="1.0" encoding="utf-8"?>
<!-- Generator: Adobe Illustrator 23.0.5, SVG Export Plug-In . SVG Version: 6.00 Build 0)  -->
<svg version="1.1" id="Capa_1" xmlns="http://www.w3.org/2000/svg" xmlns:xlink="http://www.w3.org/1999/xlink" x="0px" y="0px"
	 viewBox="0 0 74.3 31.4" style="enable-background:new 0 0 74.3 31.4;" xml:space="preserve">
<style type="text/css">
	.st0{display:none;fill:#FFFFFF;stroke:#000000;stroke-miterlimit:10;}
	.st1{fill:#FFFFFF;}
</style>
<title>logo-white</title>
<path class="st0" d="M22.7,16.3L22.7,16.3c-0.4,2.5-1.8,4.6-3.9,5.7c-2.7,1.3-5.6,1.9-8.5,1.8c-3.5,0-6.1-0.7-8-2.2
	c-1.8-1.5-2.4-3.6-1.8-6.2L2,8.5c0.4-2.7,2-5,4.3-6.3C9,0.6,12-0.1,15.1,0c3.5,0,6.2,0.6,7.9,1.9s2.3,3.1,1.8,5.6v0.1h-6.3
	C18.8,6,18.6,4.9,18,4.3s-1.8-0.8-3.6-0.8c-1.4-0.1-2.8,0.4-3.9,1.2C9.3,5.7,8.6,7,8.4,8.4l-1.5,6.9c-0.4,1.7-0.2,3,0.5,3.8
	s1.9,1.2,3.7,1.2c1.3,0.1,2.5-0.3,3.6-1c0.9-0.8,1.6-1.9,1.8-3.1h6.2V16.3z"/>
<path class="st0" d="M40.6,18.7h-8.4l-7.9,12.7h-6.8L37,0.7h6.7l4.5,23.1h-6.7L40.6,18.7z M34.3,15.2H40l-1.2-7.3h-0.1L34.3,15.2z"
	/>
<path class="st0" d="M67,17.9c0.3-0.9,0-1.8-0.7-2.4c-1.2-0.8-2.5-1.4-3.9-1.8c-2.6-0.6-5.2-1.6-7.4-3.1c-1.5-1-2.2-2.9-1.8-4.7
	c0.5-2,1.9-3.6,3.8-4.4c2.4-1,5-1.5,7.6-1.5c3.3,0,5.8,0.6,7.6,1.9c1.8,1.1,2.6,3.2,2,5.2l-0.1,0.1h-6.3c0.3-1,0-2-0.8-2.6
	c-0.9-0.7-2.1-1.1-3.2-1c-1,0-1.9,0.2-2.7,0.7c-0.7,0.3-1.2,1-1.4,1.7c-0.3,0.8,0,1.8,0.8,2.3c1.4,0.8,3,1.4,4.6,1.8
	c2.4,0.5,4.8,1.5,6.8,3c1.4,1.1,2,3,1.5,4.8c-0.5,2-1.9,3.6-3.8,4.4c-2.4,1.1-5,1.6-7.7,1.5c-2.8,0.1-5.5-0.5-8-1.7
	c-2.1-0.9-3.1-3.2-2.4-5.3v-0.1h6.3c-0.4,1.1,0.1,2.3,1.1,2.8c1.2,0.6,2.5,0.9,3.8,0.8c1,0,1.9-0.2,2.7-0.7
	C66.2,19.3,66.7,18.6,67,17.9z"/>
<polygon class="st0" points="20.9,24.8 18.3,28.8 0,28.8 1.8,24.8 "/>
<polygon class="st0" points="29.4,24.8 26.9,28.8 73.8,28.8 71.8,24.8 "/>
<g>
	<g>
		<g>
			<polygon class="st1" points="30.9,15.3 31.7,15.3 31.7,16.8 32.2,17.4 33,17.4 33.1,23.4 32.3,23.4 31.6,24.1 31.6,25.2 
				30.9,25.2 			"/>
			<rect y="18.4" class="st1" width="16.2" height="4.4"/>
			<g>
				<path class="st1" d="M29.6,5.6H19.4c-0.2,0-0.4-0.2-0.4-0.4V4.9c0-0.2,0.2-0.4,0.4-0.4h10.2c0.2,0,0.4,0.2,0.4,0.4v0.4
					C30,5.5,29.8,5.6,29.6,5.6z"/>
				<rect x="24" y="5.3" class="st1" width="1.2" height="4.1"/>
				<polygon class="st1" points="26.5,5.6 24.8,6.6 25.1,7.2 28,5.6 				"/>
				<polygon class="st1" points="21.1,5.6 24,7.1 24,6.4 22.3,5.5 				"/>
			</g>
			<path class="st1" d="M21.3,14.3v0.8h6.6v-0.8h-1v-0.7h-0.4l0-3.6c0,0-0.3-1-1.4-1c-1.1,0.1-1.2,0-1.2,0s-1.3,0-1.4,1.4
				c0,1.4,0,3.1,0,3.1h-0.3l0,0.7L21.3,14.3z"/>
		</g>
		<path class="st1" d="M21.3,15.4h6.4V16l-0.3,0.1l0,0.5l0.6,0.9h1l0.6-0.7v-1.4h0.8v9.9h-0.9v-1.2l-0.6-0.7l-1.5,0v-1.2l-0.4,0
			c0,0-0.6,2.6-2.5,2.5c-1.9-0.1-2.1-1.5-2.5-2.6c-0.3,0.1-0.3,0.1-0.3,0.1l0,1.1l-1.6,0.1l-0.6,0.7v1.2h-0.8v0.1H18V24l-0.7-0.7
			l-0.8,0v-6l1-0.1l0.4-0.4l0-1.4l0.8,0l0-0.2h0.8l0,1.4l0.7,0.7h1l0.5-0.7l0-0.7h-0.4L21.3,15.4z"/>
	</g>
	<g>
		<path class="st1" d="M40.3,8.9V8.5c0.1,0,0.2-0.1,0.3-0.1c0.1,0,0.1-0.1,0.2-0.2c0-0.1,0.1-0.2,0.1-0.3c0-0.1,0-0.3,0-0.4V1.9
			h-0.3c-0.2,0-0.3,0-0.4,0.1c-0.1,0.1-0.2,0.1-0.2,0.2c-0.1,0.1-0.1,0.3-0.2,0.4c0,0.2-0.1,0.4-0.1,0.5H39v-2h5v2h-0.6
			c-0.1-0.3-0.1-0.4-0.1-0.6c0-0.1-0.1-0.2-0.1-0.3c0-0.1-0.1-0.2-0.1-0.2C43,2.1,43,2.1,42.9,2c0,0-0.1-0.1-0.2-0.1
			c-0.1,0-0.2,0-0.3,0h-0.3v5.6c0,0.2,0,0.3,0,0.4c0,0.1,0,0.2,0,0.2c0,0.1,0.1,0.1,0.1,0.2c0,0,0.1,0.1,0.1,0.1
			c0.1,0,0.1,0.1,0.2,0.1v0.4H40.3z"/>
		<path class="st1" d="M44.3,3.4H46v3.1c0,0.4,0,0.6,0,0.8c0,0.2,0,0.4,0.1,0.5c0,0.1,0.1,0.2,0.2,0.3c0.1,0.1,0.2,0.1,0.3,0.1
			c0.1,0,0.2,0,0.3-0.1c0.1-0.1,0.2-0.2,0.3-0.4c0.1-0.2,0.1-0.3,0.1-0.5V5c0-0.3,0-0.5,0-0.6c0-0.1,0-0.2,0-0.3
			c0-0.1-0.1-0.1-0.1-0.2c-0.1-0.1-0.1-0.1-0.3-0.1V3.4h1.7v3.9c0,0.3,0,0.5,0,0.6c0,0.1,0,0.2,0,0.3s0.1,0.1,0.1,0.2
			c0.1,0.1,0.2,0.1,0.3,0.1v0.4l-1.2,0.1h-0.5l0-0.8l-0.1,0c-0.3,0.3-0.5,0.5-0.7,0.7C46.4,8.9,46.2,9,46,9c-0.3,0-0.5-0.1-0.7-0.2
			c-0.2-0.1-0.3-0.4-0.4-0.6c-0.1-0.3-0.1-0.7-0.1-1.1V5c0-0.2,0-0.4,0-0.5s0-0.2,0-0.3s0-0.1,0-0.2c0-0.1,0-0.1-0.1-0.1
			c0,0-0.1-0.1-0.1-0.1c0,0-0.1-0.1-0.2-0.1V3.4z"/>
		<path class="st1" d="M50,2.8c0-0.3,0-0.5,0-0.6c0-0.1,0-0.3,0-0.4c0-0.1,0-0.2-0.1-0.2c0-0.1-0.1-0.1-0.1-0.1
			c-0.1,0-0.1-0.1-0.3-0.1V1l1.2-0.1h0.5v3.2l0,0c0.2-0.2,0.3-0.4,0.4-0.5c0.1-0.1,0.3-0.2,0.4-0.3c0.1-0.1,0.3-0.1,0.5-0.1
			c0.5,0,0.9,0.2,1.1,0.7c0.3,0.5,0.4,1.2,0.4,2.1c0,0.6-0.1,1.2-0.2,1.6c-0.1,0.4-0.4,0.8-0.7,1C52.9,8.9,52.5,9,52.1,9
			c-0.5,0-0.9-0.1-1.2-0.3L50.5,9L50,8.9V2.8z M51.2,7.1c0,0.5,0.1,0.8,0.2,1c0.1,0.2,0.3,0.3,0.6,0.3c0.3,0,0.5-0.2,0.6-0.5
			c0.1-0.4,0.2-0.9,0.2-1.5c0-0.7-0.1-1.3-0.2-1.6c-0.1-0.4-0.3-0.5-0.6-0.5c-0.1,0-0.2,0-0.4,0.1c-0.1,0.1-0.2,0.2-0.3,0.4
			c-0.1,0.2-0.1,0.3-0.1,0.5V7.1z"/>
		<path class="st1" d="M56.9,9c-0.4,0-0.8-0.1-1.1-0.3c-0.3-0.2-0.5-0.5-0.7-0.9c-0.2-0.4-0.3-1-0.3-1.6c0-0.5,0.1-0.9,0.2-1.3
			c0.1-0.4,0.3-0.7,0.4-0.9c0.2-0.2,0.4-0.4,0.7-0.5c0.3-0.1,0.5-0.2,0.9-0.2c0.7,0,1.2,0.2,1.6,0.7c0.4,0.5,0.5,1.2,0.5,2.1
			c0,0.6-0.1,1.2-0.3,1.6c-0.2,0.4-0.4,0.8-0.7,1C57.8,8.9,57.4,9,56.9,9z M56.2,6c0,0.8,0.1,1.4,0.2,1.8c0.1,0.4,0.3,0.6,0.6,0.6
			c0.2,0,0.3-0.1,0.4-0.2c0.1-0.1,0.2-0.2,0.2-0.4c0.1-0.2,0.1-0.4,0.1-0.7c0-0.3,0-0.6,0-0.9c0-0.8-0.1-1.4-0.2-1.8
			c-0.1-0.4-0.3-0.6-0.6-0.6c-0.2,0-0.3,0.1-0.5,0.2c-0.1,0.2-0.2,0.4-0.3,0.7C56.2,5.1,56.2,5.5,56.2,6z"/>
		<path class="st1" d="M60.4,7.4c0.1,0.3,0.2,0.6,0.3,0.8c0.1,0.2,0.3,0.3,0.6,0.3c0.2,0,0.4-0.1,0.5-0.2C61.9,8.1,62,7.9,62,7.7
			c0-0.2,0-0.3-0.1-0.4c-0.1-0.1-0.1-0.2-0.2-0.3c-0.1-0.1-0.3-0.2-0.6-0.4c-0.2-0.1-0.3-0.2-0.4-0.3c-0.1-0.1-0.3-0.2-0.4-0.4
			c-0.1-0.1-0.2-0.3-0.2-0.5s-0.1-0.4-0.1-0.6c0-0.3,0.1-0.6,0.2-0.9c0.1-0.2,0.4-0.4,0.6-0.6c0.3-0.1,0.6-0.2,0.9-0.2
			c0.2,0,0.4,0,0.6,0c0.2,0,0.5,0.1,0.8,0.1v1.3h-0.6c-0.1-0.2-0.1-0.4-0.2-0.6c-0.1-0.1-0.2-0.2-0.3-0.3s-0.2-0.1-0.3-0.1
			c-0.2,0-0.3,0.1-0.4,0.2s-0.2,0.3-0.2,0.5c0,0.1,0,0.3,0.1,0.4c0,0.1,0.1,0.2,0.2,0.3c0.1,0.1,0.3,0.2,0.6,0.4
			c0.3,0.1,0.5,0.3,0.7,0.5c0.2,0.2,0.3,0.3,0.4,0.5c0.1,0.2,0.1,0.4,0.1,0.7c0,0.3,0,0.6-0.1,0.8c-0.1,0.2-0.2,0.4-0.4,0.5
			c-0.2,0.1-0.3,0.2-0.6,0.3C61.9,8.9,61.7,9,61.4,9c-0.5,0-1-0.1-1.6-0.3V7.4H60.4z"/>
		<path class="st1" d="M68.2,7.9c-0.2,0.5-0.4,1-0.5,1.3c-0.2,0.3-0.3,0.5-0.5,0.7c-0.2,0.2-0.4,0.2-0.7,0.2c-0.2,0-0.4,0-0.6-0.1
			V8.7h0.5c0,0.2,0.1,0.3,0.1,0.4c0.1,0.1,0.1,0.1,0.2,0.1c0.1,0,0.2,0,0.3-0.1c0.1-0.1,0.2-0.2,0.3-0.4c0.1-0.2,0.2-0.5,0.4-1h-0.2
			l-1.1-4.2c-0.1-0.3-0.1-0.5-0.2-0.6c0-0.1-0.1-0.2-0.2-0.3c-0.1-0.1-0.1-0.1-0.2-0.1V2.1h2.1v0.4c-0.1,0-0.2,0.1-0.3,0.2
			c-0.1,0.1-0.1,0.2-0.1,0.3c0,0.2,0,0.4,0.1,0.7l0.6,2.4L69,4c0.1-0.2,0.1-0.3,0.1-0.5c0-0.1,0-0.3,0-0.4c0-0.2,0-0.3-0.1-0.4
			c-0.1-0.1-0.2-0.2-0.3-0.2V2.1h1.7v0.4c-0.1,0-0.1,0.1-0.2,0.1c-0.1,0-0.1,0.1-0.1,0.2C70,2.9,70,3,69.9,3.2
			c-0.1,0.2-0.1,0.4-0.3,0.7L68.2,7.9z"/>
		<path class="st1" d="M40.6,11.9c0-0.1,0.1-0.3,0.1-0.4c0-0.1,0-0.3,0-0.4c0-0.2,0-0.3-0.1-0.4c-0.1-0.1-0.2-0.1-0.4-0.2v-0.4h2
			v0.4c-0.1,0-0.2,0.1-0.3,0.1c-0.1,0.1-0.2,0.2-0.2,0.3c-0.1,0.1-0.1,0.3-0.2,0.6l-1.9,6h-1l-1.5-6C37,11.3,37,11.1,36.9,11
			s-0.1-0.2-0.2-0.3c-0.1-0.1-0.2-0.1-0.3-0.2v-0.4H39v0.4c-0.2,0-0.3,0.1-0.3,0.2c-0.1,0.1-0.1,0.2-0.1,0.3c0,0.1,0,0.2,0,0.3
			c0,0.1,0.1,0.3,0.1,0.5l0.9,3.8L40.6,11.9z"/>
		<path class="st1" d="M44.7,16.8L44.7,16.8c-0.3,0.3-0.6,0.5-0.8,0.6c-0.2,0.1-0.5,0.2-0.7,0.2c-0.3,0-0.5-0.1-0.7-0.2
			c-0.2-0.1-0.3-0.3-0.4-0.5c-0.1-0.2-0.1-0.4-0.1-0.7c0-0.5,0.2-0.9,0.7-1.2c0.4-0.3,1.1-0.5,2-0.6v-0.5c0-0.3,0-0.6-0.1-0.8
			c-0.1-0.2-0.1-0.3-0.2-0.4c-0.1-0.1-0.2-0.1-0.4-0.1c-0.1,0-0.3,0-0.4,0.1c-0.1,0.1-0.2,0.2-0.3,0.3c-0.1,0.2-0.1,0.4-0.2,0.7
			h-0.9v-1c0.3-0.1,0.5-0.3,0.7-0.3c0.2-0.1,0.4-0.1,0.5-0.2c0.2-0.1,0.3-0.1,0.5-0.1c0.1,0,0.3,0,0.4,0c0.4,0,0.7,0.1,0.9,0.2
			c0.2,0.1,0.4,0.3,0.5,0.6c0.1,0.3,0.2,0.6,0.2,1.1V16c0,0.2,0,0.4,0,0.5c0,0.1,0,0.2,0,0.3c0,0.1,0,0.1,0.1,0.1
			c0,0,0.1,0.1,0.1,0.1c0,0,0.1,0.1,0.2,0.1v0.4h-1.7L44.7,16.8z M44.5,15c-0.5,0-0.8,0.1-1,0.3c-0.2,0.2-0.3,0.5-0.3,0.8
			c0,0.2,0.1,0.4,0.2,0.5c0.1,0.1,0.2,0.2,0.4,0.2c0.1,0,0.3,0,0.4-0.1c0.1-0.1,0.2-0.2,0.3-0.4c0.1-0.1,0.1-0.3,0.1-0.5V15z
			 M45.3,9.6V10l-1.6,1.7l-0.4-0.4l1-1.7H45.3z"/>
		<path class="st1" d="M48.7,16c0,0.3,0,0.6,0,0.7s0.1,0.2,0.1,0.3c0.1,0.1,0.2,0.1,0.3,0.2v0.4h-2.2v-0.4c0.1,0,0.2-0.1,0.2-0.1
			c0.1,0,0.1-0.1,0.1-0.1c0,0,0.1-0.1,0.1-0.2c0-0.1,0-0.2,0-0.3c0-0.1,0-0.3,0-0.5v-4.2c0-0.3,0-0.5,0-0.7c0-0.1,0-0.3,0-0.4
			c0-0.1,0-0.2-0.1-0.2c0-0.1-0.1-0.1-0.1-0.1c-0.1,0-0.1-0.1-0.3-0.1V9.9l1.3-0.1h0.6V16z"/>
		<path class="st1" d="M51.5,12.2v0.4c-0.1,0-0.2,0.1-0.3,0.1c-0.1,0.1-0.1,0.2-0.1,0.3c0,0.2,0,0.4,0.1,0.7l0.7,2.3l0.7-2.1
			c0.1-0.2,0.1-0.3,0.1-0.5c0-0.1,0-0.3,0-0.4c0-0.1,0-0.3-0.1-0.4c-0.1-0.1-0.2-0.2-0.3-0.2v-0.4h1.8v0.4c-0.1,0-0.2,0.1-0.2,0.1
			c-0.1,0-0.1,0.1-0.1,0.2c0,0.1-0.1,0.2-0.2,0.3c-0.1,0.1-0.2,0.4-0.3,0.7l-1.4,3.7h-0.9l-1.2-4.1c-0.1-0.3-0.1-0.5-0.2-0.6
			c-0.1-0.1-0.1-0.2-0.2-0.2c-0.1-0.1-0.1-0.1-0.2-0.1v-0.4H51.5z"/>
		<path class="st1" d="M54.4,12.2h1.8v3c0,0.3,0,0.6,0,0.8c0,0.2,0.1,0.3,0.1,0.5c0.1,0.1,0.1,0.2,0.2,0.2c0.1,0.1,0.2,0.1,0.3,0.1
			c0.1,0,0.2,0,0.4-0.1c0.1-0.1,0.2-0.2,0.3-0.3c0.1-0.1,0.1-0.3,0.1-0.5v-2.1c0-0.3,0-0.5,0-0.6c0-0.1,0-0.2-0.1-0.3
			c0-0.1-0.1-0.1-0.1-0.2c-0.1,0-0.1-0.1-0.3-0.1v-0.4h1.8v3.7c0,0.3,0,0.5,0,0.6c0,0.1,0,0.2,0.1,0.3c0,0.1,0.1,0.1,0.1,0.2
			c0.1,0,0.2,0.1,0.3,0.1v0.4l-1.2,0h-0.5l0-0.8l-0.1,0c-0.3,0.3-0.5,0.5-0.8,0.6c-0.2,0.1-0.4,0.2-0.7,0.2c-0.3,0-0.6-0.1-0.8-0.2
			c-0.2-0.1-0.3-0.3-0.4-0.6c-0.1-0.3-0.1-0.6-0.1-1.1v-2c0-0.2,0-0.4,0-0.5c0-0.1,0-0.2,0-0.2s0-0.1,0-0.2c0,0,0-0.1-0.1-0.1
			c0,0-0.1-0.1-0.1-0.1s-0.1-0.1-0.2-0.1V12.2z"/>
		<path class="st1" d="M61.7,16c0,0.3,0,0.6,0,0.7c0,0.1,0.1,0.2,0.1,0.3c0.1,0.1,0.2,0.1,0.3,0.2v0.4H60v-0.4
			c0.1,0,0.2-0.1,0.2-0.1c0.1,0,0.1-0.1,0.1-0.1c0,0,0.1-0.1,0.1-0.2c0-0.1,0-0.2,0-0.3c0-0.1,0-0.3,0-0.5v-4.2c0-0.3,0-0.5,0-0.7
			c0-0.1,0-0.3,0-0.4c0-0.1,0-0.2-0.1-0.2s-0.1-0.1-0.1-0.1c-0.1,0-0.1-0.1-0.3-0.1V9.9l1.3-0.1h0.6V16z"/>
		<path class="st1" d="M65.6,16.8L65.6,16.8c-0.3,0.3-0.6,0.5-0.8,0.6c-0.2,0.1-0.5,0.2-0.7,0.2c-0.3,0-0.5-0.1-0.7-0.2
			c-0.2-0.1-0.3-0.3-0.4-0.5c-0.1-0.2-0.1-0.4-0.1-0.7c0-0.5,0.2-0.9,0.7-1.2c0.4-0.3,1.1-0.5,2-0.6v-0.5c0-0.3,0-0.6-0.1-0.8
			c-0.1-0.2-0.1-0.3-0.2-0.4c-0.1-0.1-0.2-0.1-0.4-0.1c-0.1,0-0.3,0-0.4,0.1c-0.1,0.1-0.2,0.2-0.3,0.3c-0.1,0.2-0.1,0.4-0.2,0.7H63
			v-1c0.3-0.1,0.5-0.3,0.7-0.3c0.2-0.1,0.4-0.1,0.5-0.2c0.2-0.1,0.3-0.1,0.5-0.1c0.1,0,0.3,0,0.4,0c0.4,0,0.7,0.1,0.9,0.2
			c0.2,0.1,0.4,0.3,0.5,0.6c0.1,0.3,0.2,0.6,0.2,1.1V16c0,0.2,0,0.4,0,0.5c0,0.1,0,0.2,0,0.3c0,0.1,0,0.1,0.1,0.1
			c0,0,0.1,0.1,0.1,0.1c0,0,0.1,0.1,0.2,0.1v0.4h-1.7L65.6,16.8z M65.4,15c-0.5,0-0.8,0.1-1,0.3c-0.2,0.2-0.3,0.5-0.3,0.8
			c0,0.2,0.1,0.4,0.2,0.5c0.1,0.1,0.2,0.2,0.4,0.2c0.1,0,0.3,0,0.4-0.1c0.1-0.1,0.2-0.2,0.3-0.4c0.1-0.1,0.1-0.3,0.1-0.5V15z"/>
		<path class="st1" d="M68.4,16.1c0.1,0.3,0.2,0.6,0.3,0.7c0.2,0.2,0.4,0.2,0.6,0.2c0.2,0,0.4-0.1,0.5-0.2c0.1-0.1,0.2-0.3,0.2-0.5
			c0-0.1,0-0.3-0.1-0.4c-0.1-0.1-0.1-0.2-0.3-0.3c-0.1-0.1-0.3-0.2-0.6-0.4c-0.2-0.1-0.3-0.2-0.5-0.3c-0.1-0.1-0.3-0.2-0.4-0.4
			c-0.1-0.1-0.2-0.3-0.3-0.4s-0.1-0.3-0.1-0.5c0-0.3,0.1-0.6,0.2-0.8c0.2-0.2,0.4-0.4,0.7-0.5c0.3-0.1,0.6-0.2,1-0.2
			c0.2,0,0.4,0,0.6,0c0.2,0,0.5,0.1,0.8,0.1v1.2h-0.6c-0.1-0.2-0.1-0.4-0.2-0.5c-0.1-0.1-0.2-0.2-0.3-0.3c-0.1,0-0.2-0.1-0.4-0.1
			c-0.2,0-0.4,0.1-0.5,0.2c-0.1,0.1-0.2,0.3-0.2,0.4c0,0.1,0,0.3,0.1,0.3c0,0.1,0.1,0.2,0.2,0.3c0.1,0.1,0.3,0.2,0.6,0.4
			c0.3,0.1,0.5,0.3,0.7,0.4c0.2,0.2,0.3,0.3,0.4,0.5c0.1,0.2,0.1,0.4,0.1,0.7c0,0.3,0,0.5-0.1,0.7c-0.1,0.2-0.2,0.4-0.4,0.5
			c-0.2,0.1-0.4,0.2-0.6,0.3c-0.2,0.1-0.5,0.1-0.8,0.1c-0.5,0-1.1-0.1-1.7-0.3v-1.3H68.4z"/>
	</g>
	<path class="st1" d="M71,29.7H38.9c-1.8,0-3.3-1.5-3.3-3.3v-3.1c0-1.8,1.5-3.3,3.3-3.3H71c1.8,0,3.3,1.5,3.3,3.3v3.1
		C74.3,28.3,72.8,29.7,71,29.7z"/>
	<ellipse cx="72.3" cy="24.9" rx="0.8" ry="0.9"/>
	<ellipse cx="37.4" cy="24.9" rx="0.8" ry="0.9"/>
	<g>
		<path d="M42.6,22.2c-0.2-0.1-0.3-0.1-0.5-0.1c-0.3,0-0.6,0.1-0.8,0.3c-0.2,0.2-0.3,0.4-0.3,0.7c0,0.1,0,0.3,0.1,0.4
			c0.1,0.1,0.1,0.2,0.2,0.3c0.1,0.1,0.2,0.2,0.3,0.2c0.1,0.1,0.2,0.1,0.3,0.2c0.1,0.1,0.3,0.2,0.4,0.3c0.1,0.1,0.2,0.2,0.3,0.3
			c0.1,0.1,0.2,0.3,0.2,0.4s0.1,0.3,0.1,0.6c0,0.6-0.2,1-0.6,1.3c-0.4,0.3-1,0.5-1.6,0.5c-0.4,0-0.8-0.1-1.3-0.2l0,0l0.4-1.5l0.2,0
			l0.1,1.3c0.2,0.1,0.4,0.1,0.6,0.1c0.3,0,0.6-0.1,0.9-0.3c0.2-0.2,0.3-0.4,0.3-0.7c0-0.1,0-0.3-0.1-0.4c-0.1-0.1-0.1-0.2-0.2-0.3
			c-0.1-0.1-0.2-0.2-0.3-0.2c-0.1-0.1-0.2-0.1-0.3-0.2c-0.1-0.1-0.2-0.2-0.4-0.2c-0.1-0.1-0.2-0.2-0.3-0.3c-0.1-0.1-0.2-0.3-0.2-0.4
			C40,23.9,40,23.8,40,23.5c0-0.6,0.2-1,0.6-1.3c0.4-0.3,0.9-0.5,1.6-0.5c0.4,0,0.8,0.1,1.2,0.2l0,0l-0.4,1.3l-0.2,0L42.6,22.2z"/>
		<path d="M47.1,23.8c-0.1,0.3-0.2,0.8-0.3,1.3l-0.3,1.8c0,0.1,0,0.1,0,0.2c0,0.1,0,0.1,0,0.1c0,0,0.1,0.1,0.1,0.1c0,0,0.1,0,0.2,0
			c0.1,0,0.2,0,0.3,0l0,0.2c-0.4,0.1-0.7,0.2-0.9,0.2c-0.2,0-0.3,0-0.4-0.1c-0.1-0.1-0.1-0.2-0.1-0.4V27c-0.4,0.4-0.7,0.6-0.9,0.6
			c-0.3,0-0.6-0.1-0.8-0.4c-0.2-0.3-0.3-0.6-0.3-1.1c0-0.7,0.2-1.3,0.6-1.7c0.4-0.5,0.9-0.7,1.5-0.7c0.3,0,0.6,0.1,0.9,0.1
			C46.7,23.8,46.8,23.8,47.1,23.8L47.1,23.8z M46,24.2c-0.1-0.1-0.3-0.1-0.4-0.1c-0.3,0-0.6,0.2-0.8,0.6c-0.2,0.4-0.3,0.8-0.3,1.3
			c0,0.3,0,0.5,0.1,0.7c0.1,0.2,0.2,0.3,0.3,0.3c0.1,0,0.4-0.1,0.7-0.4L46,24.2z"/>
		<path d="M47.7,27.6l0.5-3.1c0-0.1,0-0.2,0-0.2c0,0,0-0.1,0-0.1c0,0-0.1,0-0.1-0.1c0,0-0.1,0-0.2,0c-0.1,0-0.1,0-0.2,0l0-0.2
			c0.4-0.1,0.7-0.2,1-0.2c0.2,0,0.3,0,0.4,0.1c0.1,0.1,0.1,0.2,0.1,0.3c0,0,0,0,0,0.1c0.5-0.3,0.9-0.5,1.3-0.5
			c0.3,0,0.5,0.1,0.6,0.2c0.1,0.2,0.2,0.4,0.2,0.6c0,0.1,0,0.2,0,0.4L51,26.9c0,0,0,0,0,0.1c0,0,0,0,0,0.1c0,0.1,0,0.1,0,0.1
			c0,0,0.1,0.1,0.1,0.1c0,0,0.1,0,0.2,0c0.1,0,0.1,0,0.2,0l0,0.2c-0.4,0.1-0.7,0.2-1,0.2c-0.2,0-0.3,0-0.4-0.1
			C50,27.4,50,27.3,50,27.1c0-0.1,0-0.2,0-0.3l0.3-1.7c0-0.1,0-0.3,0-0.4c0-0.2,0-0.3-0.1-0.4c-0.1-0.1-0.2-0.1-0.3-0.1
			c-0.2,0-0.4,0.1-0.8,0.3l-0.5,3L47.7,27.6z"/>
		<path d="M54.4,22l0-0.2c0.6-0.1,1.2-0.2,1.6-0.4l0,0c0,0.1,0,0.2-0.1,0.4c0,0.1-0.1,0.3-0.1,0.4c0,0.2-0.1,0.3-0.1,0.5
			c0,0.2-0.1,0.4-0.1,0.5l-0.4,2.3l-0.2,1.3c0,0.1,0,0.1,0,0.2c0,0.1,0,0.1,0,0.1c0,0,0.1,0.1,0.1,0.1c0,0,0.1,0,0.2,0
			c0.1,0,0.2,0,0.3,0l0,0.2c-0.4,0.1-0.7,0.2-0.9,0.2c-0.2,0-0.3,0-0.4-0.1c-0.1-0.1-0.1-0.2-0.1-0.4V27c-0.4,0.4-0.7,0.6-0.9,0.6
			c-0.3,0-0.6-0.1-0.8-0.4c-0.2-0.3-0.3-0.6-0.3-1.1c0-0.7,0.2-1.3,0.6-1.7c0.4-0.5,0.9-0.7,1.5-0.7c0.1,0,0.3,0,0.5,0l0.3-1.7
			L54.4,22z M54.6,24.2c-0.1-0.1-0.3-0.1-0.5-0.1c-0.3,0-0.6,0.2-0.8,0.6s-0.3,0.8-0.3,1.3c0,0.3,0,0.5,0.1,0.7
			c0.1,0.2,0.2,0.3,0.3,0.3c0.1,0,0.4-0.1,0.7-0.4L54.6,24.2z"/>
		<path d="M58.2,23.7c0.5,0,0.9,0.2,1.2,0.5s0.5,0.7,0.5,1.2c0,0.6-0.2,1.2-0.5,1.6c-0.4,0.4-0.8,0.6-1.4,0.6
			c-0.5,0-0.9-0.2-1.2-0.5c-0.3-0.3-0.4-0.7-0.4-1.2c0-0.7,0.2-1.2,0.5-1.6C57.2,23.9,57.6,23.7,58.2,23.7z M58.2,24.1
			c-0.3,0-0.5,0.2-0.6,0.6c-0.2,0.4-0.3,0.8-0.3,1.3c0,0.4,0.1,0.7,0.2,0.9c0.1,0.2,0.3,0.3,0.5,0.3c0.3,0,0.5-0.2,0.6-0.6
			c0.2-0.4,0.2-0.8,0.2-1.3c0-0.4-0.1-0.7-0.2-0.9C58.6,24.2,58.4,24.1,58.2,24.1z"/>
		<path d="M61.7,27.6l-0.5,0.1c0-0.4-0.1-1-0.2-1.7c-0.1-0.7-0.2-1.2-0.3-1.5c0,0,0-0.1,0-0.1c0,0,0-0.1-0.1-0.1c0,0-0.1,0-0.2-0.1
			c-0.1,0-0.2,0-0.3,0l0-0.2c0.4-0.1,0.7-0.2,0.9-0.2c0.1,0,0.3,0,0.3,0.1c0.1,0,0.1,0.1,0.2,0.2c0,0.1,0,0.1,0.1,0.2
			c0,0.1,0,0.2,0.1,0.3s0,0.3,0.1,0.4c0,0.1,0,0.3,0.1,0.4c0,0.1,0,0.3,0.1,0.4c0,0.1,0,0.2,0,0.3l0,0.5c0.2-0.4,0.4-0.8,0.5-1.2
			c0.1-0.4,0.2-0.9,0.2-1.3c0.2,0,0.3-0.1,0.5-0.1c0.2,0,0.3-0.1,0.5-0.2l0.1,0c0,0.2,0,0.4-0.1,0.6c-0.1,0.2-0.2,0.5-0.3,0.7
			c-0.1,0.2-0.2,0.5-0.4,0.7c-0.1,0.2-0.3,0.5-0.4,0.7c-0.1,0.2-0.3,0.4-0.4,0.6C61.9,27.3,61.8,27.4,61.7,27.6z"/>
		<path d="M67.5,23.8c-0.1,0.3-0.2,0.8-0.3,1.3l-0.3,1.8c0,0.1,0,0.1,0,0.2c0,0.1,0,0.1,0,0.1c0,0,0.1,0.1,0.1,0.1c0,0,0.1,0,0.2,0
			c0.1,0,0.2,0,0.3,0l0,0.2c-0.4,0.1-0.7,0.2-0.9,0.2c-0.2,0-0.3,0-0.4-0.1C66,27.4,66,27.2,66,27.1V27c-0.4,0.4-0.7,0.6-0.9,0.6
			c-0.3,0-0.6-0.1-0.8-0.4c-0.2-0.3-0.3-0.6-0.3-1.1c0-0.7,0.2-1.3,0.6-1.7c0.4-0.5,0.9-0.7,1.5-0.7c0.3,0,0.6,0.1,0.9,0.1
			C67.1,23.8,67.3,23.8,67.5,23.8L67.5,23.8z M66.4,24.2c-0.1-0.1-0.3-0.1-0.4-0.1c-0.3,0-0.6,0.2-0.8,0.6C65.1,25.1,65,25.5,65,26
			c0,0.3,0,0.5,0.1,0.7s0.2,0.3,0.3,0.3c0.1,0,0.4-0.1,0.7-0.4L66.4,24.2z"/>
		<path d="M68.5,22l0-0.2c0.6-0.1,1.2-0.2,1.6-0.4l0,0c0,0.1,0,0.2-0.1,0.4c0,0.1-0.1,0.3-0.1,0.4c0,0.2-0.1,0.3-0.1,0.5
			c0,0.2-0.1,0.4-0.1,0.5l-0.6,3.5c0,0.1,0,0.1,0,0.2c0,0.1,0,0.1,0.1,0.2c0.1,0,0.2,0.1,0.5,0.1l0,0.2c-0.4,0.1-0.7,0.2-1,0.2
			c-0.2,0-0.3,0-0.4-0.1c-0.1-0.1-0.1-0.2-0.1-0.4c0,0,0-0.1,0-0.3l0.9-4.8L68.5,22z"/>
	</g>
</g>
</svg>
